# AST/ASF file generated using VICON BodyLanguage
# -----------------------------------------------
:version 1.10
:name VICON
:units
  mass 1.0
  length 0.45
  angle deg
:documentation
   .ast/.asf automatically generated from VICON data using
   VICON BodyBuilder and BodyLanguage model FoxedUp or BRILLIANT.MOD
:root
   order TX TY TZ RX RY RZ
   axis XYZ
   position 0 0 0  
   orientation 0 0 0 
:bonedata
  begin
     id 1 
     name lhipjoint
     direction 0.646657 -0.683706 0.338203 
     length 2.4948 
     axis 0 0 0  XYZ
  end
  begin
     id 2 
     name lfemur
     direction 0.34202 -0.939693 0  
     length 6.79491  
     axis 0 0 20  XYZ
    dof rx ry rz
    limits (-160.0 20.0)
           (-70.0 70.0)
           (-60.0 70.0)
  end
  begin
     id 3 
     name ltibia
     direction 0.34202 -0.939693 0   
     length 7.56807   
     axis 0 0 20   XYZ
    dof rx
    limits (-10.0 170.0)
  end
  begin
     id 4 
     name lfoot
     direction 0.0679796 -0.186772 0.980048   
     length 2.53018   
     axis -90 7.62852e-016 20   XYZ
    dof rx rz
    limits (-45.0 90.0)
           (-70.0 20.0)
  end
  begin
     id 5 
     name ltoes
     direction 1.53625e-011 -4.21881e-011 1   
     length 1.26912   
     axis -90 7.62852e-016 20   XYZ
    dof rx
    limits (-90.0 20.0)
  end
  begin
     id 6 
     name rhipjoint
     direction -0.618868 -0.704065 0.348274   
     length 2.42265  
     axis 0 0 0  XYZ 
  end
  begin
     id 7 
     name rfemur
     direction -0.34202 -0.939693 0   
     length 6.73814   
     axis 0 0 -20   XYZ
    dof rx ry rz
    limits (-160.0 20.0)
           (-70.0 70.0)
           (-70.0 60.0)
  end
  begin
     id 8 
     name rtibia
     direction -0.34202 -0.939693 0   
     length 7.66799   
     axis 0 0 -20   XYZ
    dof rx
    limits (-10.0 170.0)
 end
 begin
     id 9 
     name rfoot
     direction -0.0727352 -0.199838 0.977125   
     length 2.57224  
     axis -90 -7.62852e-016 -20   XYZ
    dof rx rz
    limits (-45.0 90.0)
           (-20.0 70.0)
  end
  begin
     id 10 
     name rtoes
     direction -1.53501e-011 -4.21858e-011 1   
     length 1.28858   
     axis -90 -7.62852e-016 -20   XYZ
    dof rx
    limits (-90.0 20.0)
  end
  begin
     id 11 
     name lowerback
     direction -0.0172471 0.995767 -0.0902851   
     length 2.20206   
     axis 0 0 0   XYZ
    dof rx ry rz
    limits (-20.0 45.0)
           (-30.0 30.0)
           (-30.0 30.0)
  end
  begin
     id 12 
     name upperback
     direction -0.000110737 0.999714 0.0239043   
     length 2.19523   
     axis 0 0 0   XYZ
    dof rx ry rz
    limits (-20.0 45.0)
           (-30.0 30.0)
           (-30.0 30.0)
  end
  begin
     id 13 
     name thorax
     direction 0.00704869 0.997783 0.0661741   
     length 2.21977   
     axis 0 0 0   XYZ
    dof rx ry rz
    limits (-20.0 45.0)
           (-30.0 30.0)
           (-30.0 30.0)
  end
  begin
     id 14 
     name lowerneck
     direction -0.00407501 0.995527 0.0943846   
     length 1.83142   
     axis 0 0 0   XYZ
    dof rx ry rz
    limits (-20.0 45.0)
           (-30.0 30.0)
           (-30.0 30.0)
  end
  begin
     id 15 
     name upperneck
     direction 0.0640586 0.986486 -0.150807   
     length 1.84616   
     axis 0 0 0   XYZ
    dof rx ry rz
    limits (-20.0 45.0)
           (-30.0 30.0)
           (-30.0 30.0)
  end
  begin
     id 16
     name head
     direction 0.0188017 0.99791 -0.0618239  
     length 1.85932  
     axis 0 0 0   XYZ
    dof rx ry rz
    limits (-20.0 45.0)
           (-30.0 30.0)
           (-30.0 30.0)
  end
  begin
     id 17 
     name lclavicle
     direction 0.976074 0.206905 0.066852  
     length 3.81043  
     axis 0 0 0   XYZ
    dof ry rz
    limits (-20.0 10.0)
           (0.0 20.0)
  end
  begin
     id 18 
     name lhumerus
     direction 1 -4.48971e-011 1.86916e-027   
     length 5.37587   
     axis 180 -30 -90   XYZ
    dof rx ry rz
    limits (-60.0 90.0)
           (-90.0 90.0)
           (-90.0 90.0)
  end
  begin
     id 19
     name lradius
     direction 1 -4.48968e-011 1.69187e-027   
     length 3.35977   
     axis 180 -30 -90   XYZ
    dof rx
    limits (-10.0 170.0)
  end
  begin
     id 20
     name lwrist
     direction 1 -4.48968e-011 5.8978e-027   
     length 1.67988   
     axis -3.27506e-015 90 90   XYZ
    dof ry
    limits (-180.0 0.0)
 end
  begin
     id 21 
     name lhand
     direction 1 -4.49028e-011 1.18071e-026   
     length 0.561859   
     axis -7.52654e-015 90 90   XYZ
    dof rx rz
    limits (-90.0 90.0)
           (-45.0 45.0)
  end
  begin
     id 22 
     name lfingers
     direction 1 -4.48927e-011 2.35758e-026   
     length 0.452985   
     axis -1.50534e-014 90 90   XYZ
    dof rx
    limits (0.0 90.0)
  end
  begin
     id 23
     name lthumb
     direction 0.707107 -6.34898e-011 0.707107   
     length 0.650399   
     axis -90 45 5.69224e-014   XYZ
    dof rx rz
    limits (-45.0 45.0)
           (-45.0 45.0)
  end
  begin
     id 24 
     name rclavicle
     direction -0.988403 0.151789 0.00439714   
     length 3.6942  
     axis 0 0 0   XYZ 
    dof ry rz
    limits (-10.0 20.0)
           (-20.0 0.0)
  end
  begin
     id 25 
     name rhumerus
     direction -1 -4.48978e-011 1.62495e-027  
     length 5.22819   
     axis 180 30 90   XYZ
    dof rx ry rz
    limits (-90.0 60.0)
           (-90.0 90.0)
           (-90.0 90.0)
  end
  begin
     id 26 
     name rradius
     direction -1 -4.48961e-011 3.47796e-027   
     length 3.40764   
     axis 180 30 90   XYZ
    dof rx
    limits (-10.0 170.0)
  end
  begin
     id 27 
     name rwrist
     direction -1 -4.48949e-011 5.89602e-027   
     length 1.70382   
     axis -3.27506e-015 -90 -90   XYZ
    dof ry
    limits (-180.0 0.0)
  end
  begin
     id 28
     name rhand
     direction -1 -4.48977e-011 1.17973e-026   
     length 0.583255   
     axis -7.52654e-015 -90 -90   XYZ
    dof rx rz
    limits (-90.0 90.0)
           (-45.0 45.0)
  end
  begin
     id 29
     name rfingers
     direction -1 -4.49099e-011 2.36408e-026   
     length 0.470235   
     axis -1.50534e-014 -90 -90   XYZ
    dof rx
    limits (0.0 90.0)
  end
  begin
     id 30
     name rthumb
     direction -0.707107 -6.35011e-011 0.707107   
     length 0.675167   
     axis -90 -45 -5.69224e-014   XYZ
    dof rx rz
    limits (-45.0 45.0)
           (-45.0 45.0)
  end
:hierarchy
  begin
    root lhipjoint rhipjoint lowerback
    lhipjoint lfemur
    lfemur ltibia
    ltibia lfoot
    lfoot ltoes
    rhipjoint rfemur
    rfemur rtibia
    rtibia rfoot
    rfoot rtoes
    lowerback upperback
    upperback thorax
    thorax lowerneck lclavicle rclavicle
    lowerneck upperneck
    upperneck head
    lclavicle lhumerus
    lhumerus lradius
    lradius lwrist
    lwrist lhand lthumb
    lhand lfingers
    rclavicle rhumerus
    rhumerus rradius
    rradius rwrist
    rwrist rhand rthumb
    rhand rfingers
  end

#!OML:ASF G:\JayActor3\Patient Classification 1\Patient 1\Session 2\male.ASF
:FULLY-SPECIFIED
:DEGREES
1684
root -14.4169 16.9746 -6.55213 -345.514 -281.968 11.7466
lowerback -12.7197 -6.93016 -6.12391
upperback -4.33162 -8.52259 6.0198
thorax 4.31495 -4.21386 8.37037
lowerneck -7.20864 4.29097 5.01566
upperneck 9.38033 5.47947 -2.43331
head 4.19019 2.75968 -1.23483
rclavicle -6.48038e-014 6.36111e-015
rhumerus -50.3724 5.70587 -61.8927
rradius 44.4322
rwrist -1.43797
rhand -34.0843 0.344075
rfingers 7.12502
rthumb -7.26096 -29.5113
lclavicle -6.48038e-014 6.36111e-015
lhumerus -38.9805 6.89895 81.844
lradius 47.385
lwrist 14.2205
lhand -21.4673 25.7498
lfingers 7.12502
lthumb 4.92314 55.6726
rfemur -25.9589 0.592146 23.3128
rtibia 33.9384
rfoot -12.1672 -3.58809
rtoes 22.2329
lfemur 25.1293 9.15218 -24.3604
ltibia -3.49861e-014
lfoot 13.3244 -6.33115
ltoes -1.94849
1685
root -14.3191 16.9765 -6.54286 -346.351 -281.943 10.9621
lowerback -12.7726 -6.90584 -5.98034
upperback -4.28311 -8.50926 6.09148
thorax 4.38423 -4.21015 8.36216
lowerneck -7.13041 4.43376 5.16681
upperneck 9.58933 5.68328 -2.60402
head 4.25811 2.85904 -1.2975
rclavicle 6.59965e-014 3.33958e-014
rhumerus -50.3688 5.91278 -61.9325
rradius 44.9195
rwrist -1.47576
rhand -34.1453 0.383021
rfingers 7.12502
rthumb -7.31984 -29.4704
lclavicle 6.59965e-014 3.33958e-014
lhumerus -39.2989 6.51252 82.1871
lradius 47.2986
lwrist 14.1748
lhand -21.3051 25.7172
lfingers 7.12502
lthumb 5.07977 55.6363
rfemur -25.5211 0.126776 23.5224
rtibia 33.9603
rfoot -12.2267 -3.08992
rtoes 22.3646
lfemur 25.4405 8.95138 -24.2354
ltibia -1.59028e-014
lfoot 13.9449 -5.72761
ltoes -1.96329
1686
root -14.2231 16.977 -6.53357 -347.061 -281.931 10.3419
lowerback -12.7693 -6.87213 -5.88023
upperback -4.223 -8.48156 6.14566
thorax 4.4358 -4.20005 8.3676
lowerneck -7.07144 4.56889 5.30766
upperneck 9.79282 5.87575 -2.75772
head 4.32697 2.9531 -1.35354
rclavicle -4.49253e-014 1.74931e-014
rhumerus -50.372 6.11532 -62.0015
rradius 45.4202
rwrist -1.48792
rhand -34.1852 0.431238
rfingers 7.12502
rthumb -7.35829 -29.4208
lclavicle -4.49253e-014 1.74931e-014
lhumerus -39.6031 6.12982 82.5366
lradius 47.209
lwrist 14.0864
lhand -21.091 25.6407
lfingers 7.12502
lthumb 5.28646 55.5548
rfemur -25.0659 -0.295448 23.6825
rtibia 34.0017
rfoot -12.3003 -2.62947
rtoes 22.5745
lfemur 25.7744 8.75478 -24.14
ltibia -6.67916e-014
lfoot 14.6186 -5.09609
ltoes -1.86168
1687
root -14.1288 16.9761 -6.52425 -347.655 -281.927 9.86943
lowerback -12.7204 -6.83238 -5.818
upperback -4.15034 -8.44392 6.18362
thorax 4.47678 -4.18595 8.38277
lowerneck -7.02008 4.69762 5.43834
upperneck 9.98206 6.0591 -2.89694
head 4.39221 3.04286 -1.40396
rclavicle 1.09332e-013 0
rhumerus -50.3729 6.32063 -62.1044
rradius 45.9263
rwrist -1.48969
rhand -34.1981 0.483169
rfingers 7.12502
rthumb -7.37079 -29.3684
lclavicle 1.09332e-013 0
lhumerus -39.899 5.77696 82.8785
lradius 47.1255
lwrist 13.9531
lhand -20.8378 25.5517
lfingers 7.12502
lthumb 5.53097 55.4595
rfemur -24.5981 -0.659267 23.7962
rtibia 34.0662
rfoot -12.4007 -2.22028
rtoes 22.8642
lfemur 26.129 8.56035 -24.0706
ltibia 1.04958e-013
lfoot 15.3395 -4.43135
ltoes -1.62421
1688
root -14.0359 16.9736 -6.51514 -348.155 -281.927 9.51521
lowerback -12.6438 -6.78771 -5.78136
upperback -4.06666 -8.39822 6.20751
thorax 4.51415 -4.16869 8.40093
lowerneck -6.96235 4.81776 5.56404
upperneck 10.1466 6.23183 -3.03643
head 4.44875 3.12708 -1.45465
rclavicle -7.99114e-014 9.54166e-015
rhumerus -50.3678 6.53251 -62.2425
rradius 46.43
rwrist -1.50429
rhand -34.1809 0.537349
rfingers 7.12502
rthumb -7.35421 -29.3148
lclavicle -7.99114e-014 9.54166e-015
lhumerus -40.1899 5.47684 83.2033
lradius 47.0515
lwrist 13.7844
lhand -20.5525 25.4765
lfingers 7.12502
lthumb 5.80645 55.3769
rfemur -24.1239 -0.96727 23.8713
rtibia 34.1516
rfoot -12.5348 -1.86669
rtoes 23.1934
lfemur 26.4965 8.36492 -24.0236
ltibia -5.725e-014
lfoot 16.1034 -3.73302
ltoes -1.27591
1689
root -13.9437 16.9697 -6.50637 -348.629 -281.924 9.20035
lowerback -12.5536 -6.7424 -5.74877
upperback -3.97397 -8.35202 6.22324
thorax 4.55292 -4.15172 8.41336
lowerneck -6.89366 4.93459 5.68768
upperneck 10.2875 6.40103 -3.1767
head 4.4965 3.20942 -1.50592
rclavicle 8.46823e-014 -5.08889e-014
rhumerus -50.3517 6.75973 -62.4172
rradius 46.9232
rwrist -1.53498
rhand -34.1293 0.593631
rfingers 7.12502
rthumb -7.30433 -29.2603
lclavicle 8.46823e-014 -5.08889e-014
lhumerus -40.486 5.25254 83.4997
lradius 46.9934
lwrist 13.6061
lhand -20.2452 25.398
lfingers 7.12502
lthumb 6.10313 55.29
rfemur -23.6415 -1.22819 23.9275
rtibia 34.2525
rfoot -12.7122 -1.56431
rtoes 23.5189
lfemur 26.8711 8.16568 -23.9835
ltibia 6.04305e-014
lfoot 16.9069 -3.00116
ltoes -0.875368
1690
root -13.852 16.9642 -6.49806 -349.172 -281.914 8.8257
lowerback -12.4613 -6.69222 -5.69602
upperback -3.87082 -8.30202 6.23417
thorax 4.59734 -4.13317 8.40945
lowerneck -6.80959 5.04388 5.80892
upperneck 10.3986 6.56073 -3.31551
head 4.53243 3.28708 -1.55764
rclavicle -5.00937e-014 4.92986e-014
rhumerus -50.3285 6.99455 -62.6304
rradius 47.4049
rwrist -1.59622
rhand -34.0704 0.619504
rfingers 7.12502
rthumb -7.24749 -29.2364
lclavicle -5.00937e-014 4.92986e-014
lhumerus -40.7796 5.09746 83.7676
lradius 46.9461
lwrist 13.4517
lhand -19.9428 25.3324
lfingers 7.12502
lthumb 6.39506 55.2159
rfemur -23.1514 -1.46266 23.992
rtibia 34.3594
rfoot -12.9308 -1.30477
rtoes 23.7492
lfemur 27.2524 7.96253 -23.9306
ltibia 2.22639e-014
lfoot 17.751 -2.21939
ltoes -0.403446
1691
root -13.7607 16.9571 -6.49031 -349.856 -281.893 8.31131
lowerback -12.3759 -6.63821 -5.60477
upperback -3.75762 -8.2514 6.24566
thorax 4.651 -4.11434 8.38311
lowerneck -6.71455 5.14832 5.92711
upperneck 10.4874 6.71401 -3.44879
head 4.55955 3.3618 -1.60812
rclavicle 6.2816e-014 -1.74931e-014
rhumerus -50.2932 7.23505 -62.88
rradius 47.8631
rwrist -1.67603
rhand -34.0174 0.604522
rfingers 7.12502
rthumb -7.1964 -29.2531
lclavicle 6.2816e-014 -1.74931e-014
lhumerus -41.0688 5.00955 84.0076
lradius 46.904
lwrist 13.3507
lhand -19.6555 25.2862
lfingers 7.12502
lthumb 6.67239 55.161
rfemur -22.6509 -1.68698 24.0845
rtibia 34.4625
rfoot -13.192 -1.07746
rtoes 23.8317
lfemur 27.637 7.7534 -23.8487
ltibia -2.22639e-014
lfoot 18.6365 -1.37419
ltoes 0.140346
1692
root -13.6702 16.9485 -6.48313 -350.752 -281.856 7.58119
lowerback -12.2955 -6.57849 -5.46178
upperback -3.63604 -8.19924 6.26215
thorax 4.70972 -4.09428 8.33212
lowerneck -6.61954 5.24667 6.04238
upperneck 10.5631 6.85823 -3.57245
head 4.58214 3.43243 -1.65593
rclavicle -5.1684e-015 -2.22639e-014
rhumerus -50.249 7.47735 -63.1662
rradius 48.2944
rwrist -1.77573
rhand -34.003 0.540829
rfingers 7.12502
rthumb -7.18251 -29.3173
lclavicle -5.1684e-015 -2.22639e-014
lhumerus -41.347 4.96709 84.228
lradius 46.856
lwrist 13.3196
lhand -19.4143 25.2443
lfingers 7.12502
lthumb 6.90526 55.1117
rfemur -22.1436 -1.91121 24.2242
rtibia 34.5541
rfoot -13.4904 -0.876603
rtoes 23.7579
lfemur 28.0166 7.53467 -23.7225
ltibia 1.59028e-014
lfoot 19.5718 -0.466677
ltoes 0.725678
1693
root -13.5809 16.9388 -6.47645 -351.87 -281.803 6.62159
lowerback -12.2178 -6.51341 -5.26766
upperback -3.50656 -8.14607 6.28559
thorax 4.77237 -4.07309 8.25907
lowerneck -6.53778 5.3389 6.1406
upperneck 10.639 6.99273 -3.67253
head 4.60543 3.49876 -1.69411
rclavicle -2.26615e-014 0
rhumerus -50.1911 7.71928 -63.4858
rradius 48.6887
rwrist -1.86849
rhand -34.0471 0.431309
rfingers 7.12502
rthumb -7.22504 -29.4253
lclavicle -2.26615e-014 0
lhumerus -41.6035 4.95329 84.4378
lradius 46.79
lwrist 13.3556
lhand -19.2376 25.2327
lfingers 7.12502
lthumb 7.0758 55.0944
rfemur -21.6311 -2.13634 24.4124
rtibia 34.6317
rfoot -13.822 -0.692431
rtoes 23.5797
lfemur 28.3846 7.30438 -23.5506
ltibia -2.22639e-014
lfoot 20.5691 0.485389
ltoes 1.24686
1694
root -13.4935 16.9278 -6.47012 -353.173 -281.732 5.46798
lowerback -12.1382 -6.44445 -5.03662
upperback -3.37072 -8.09226 6.31408
thorax 4.83651 -4.05094 8.17042
lowerneck -6.47174 5.42459 6.22307
upperneck 10.717 7.11635 -3.74717
head 4.63026 3.5603 -1.72228
rclavicle 8.11041e-014 -2.38542e-014
rhumerus -50.1225 7.95868 -63.8376
rradius 49.048
rwrist -1.94253
rhand -34.1652 0.269355
rfingers 7.12502
rthumb -7.339 -29.5834
lclavicle 8.11041e-014 -2.38542e-014
lhumerus -41.8294 4.95144 84.6427
lradius 46.6953
lwrist 13.4498
lhand -19.1439 25.2166
lfingers 7.12502
lthumb 7.16628 55.0753
rfemur -21.122 -2.3607 24.6414
rtibia 34.6976
rfoot -14.1758 -0.532597
rtoes 23.3121
lfemur 26.1714 7.10668 -23.3393
ltibia 4.70002
lfoot 19.9488 0.163789
ltoes 1.71746
